HIERARCHY
ROOT joint_Root
{
	OFFSET 0.0 0.0 0.0
	CHANNELS 6 Xposition Yposition Zposition Zrotation Xrotation Yrotation 
	JOINT Hips
	{
		OFFSET -17.1583 93.1646 452.98
		CHANNELS 6 Xposition Yposition Zposition Zrotation Xrotation Yrotation 
		JOINT Spine
		{
			OFFSET 15.7357 0.0 0.0
			CHANNELS 6 Xposition Yposition Zposition Zrotation Xrotation Yrotation 
			JOINT Chest
			{
				OFFSET 8.98455 -0.406207 0.0
				CHANNELS 6 Xposition Yposition Zposition Zrotation Xrotation Yrotation 
				JOINT Neck
				{
					OFFSET 16.3773 0.0 0.0
					CHANNELS 6 Xposition Yposition Zposition Zrotation Xrotation Yrotation 
					JOINT Head
					{
						OFFSET 6.45672 0.0 0.0
						CHANNELS 6 Xposition Yposition Zposition Zrotation Xrotation Yrotation 
						End Site
						{
							OFFSET 0.0 0.0 0.0
						}
					}
				}
				JOINT Shoulder_L
				{
					OFFSET 12.9942 -0.242716 4.98039
					CHANNELS 6 Xposition Yposition Zposition Zrotation Xrotation Yrotation 
					JOINT UpperArm_L
					{
						OFFSET 5.34809 0.0 0.0
						CHANNELS 6 Xposition Yposition Zposition Zrotation Xrotation Yrotation 
						JOINT LowerArm_L
						{
							OFFSET 24.3286 1.87007e-05 0.0
							CHANNELS 6 Xposition Yposition Zposition Zrotation Xrotation Yrotation 
							JOINT Hand_L
							{
								OFFSET 22.2916 0.0 0.0
								CHANNELS 6 Xposition Yposition Zposition Zrotation Xrotation Yrotation 
								End Site
								{
									OFFSET 0.0 0.0 0.0
								}
							}
						}
					}
				}
				JOINT Shoulder_R
				{
					OFFSET 12.9945 -0.242716 -4.98039
					CHANNELS 6 Xposition Yposition Zposition Zrotation Xrotation Yrotation 
					JOINT UpperArm_R
					{
						OFFSET -5.34813 0.0 0.0
						CHANNELS 6 Xposition Yposition Zposition Zrotation Xrotation Yrotation 
						JOINT LowerArm_R
						{
							OFFSET -24.3289 0.000322201 0.0
							CHANNELS 6 Xposition Yposition Zposition Zrotation Xrotation Yrotation 
							JOINT Hand_R
							{
								OFFSET -22.2915 -0.000108084 0.0
								CHANNELS 6 Xposition Yposition Zposition Zrotation Xrotation Yrotation 
								End Site
								{
									OFFSET 0.0 0.0 0.0
								}
							}
						}
					}
				}
			}
		}
		JOINT UpperLeg_L
		{
			OFFSET -2.19248 -6.46944 0.0
			CHANNELS 6 Xposition Yposition Zposition Zrotation Xrotation Yrotation 
			JOINT LowerLeg_L
			{
				OFFSET 39.0811 0.0 -1.23785e-05
				CHANNELS 6 Xposition Yposition Zposition Zrotation Xrotation Yrotation 
				JOINT Foot_L
				{
					OFFSET 40.9854 0.0 -1.26872e-05
					CHANNELS 6 Xposition Yposition Zposition Zrotation Xrotation Yrotation 
					JOINT Toes_L
					{
						OFFSET 11.7543 0.0 0.0
						CHANNELS 6 Xposition Yposition Zposition Zrotation Xrotation Yrotation 
						End Site
						{
							OFFSET 0.0 0.0 0.0
						}
					}
				}
			}
		}
		JOINT UpperLeg_R
		{
			OFFSET -2.19251 6.46944 0.0
			CHANNELS 6 Xposition Yposition Zposition Zrotation Xrotation Yrotation 
			JOINT LowerLeg_R
			{
				OFFSET -39.0811 -0.00228153 -0.0401928
				CHANNELS 6 Xposition Yposition Zposition Zrotation Xrotation Yrotation 
				JOINT Foot_R
				{
					OFFSET -40.9854 0.0 0.0
					CHANNELS 6 Xposition Yposition Zposition Zrotation Xrotation Yrotation 
					JOINT Toes_R
					{
						OFFSET -11.7543 0.0 0.0
						CHANNELS 6 Xposition Yposition Zposition Zrotation Xrotation Yrotation 
						End Site
						{
							OFFSET 0.0 0.0 0.0
						}
					}
				}
			}
		}
	}
}
MOTION
Frames:	7
Frame Time:	0.0333333
0.000000 0.000000 0.000000 0.000000 0.000000 -0.000000 1.502950 93.348800 -0.321266 89.990000 1.168640 -0.210242 15.735700 0.000005 -0.000001 75.231900 87.298600 -66.902200 8.984550 -0.406207 -0.000000 -2.334210 -2.108100 16.617600 16.377300 -0.000001 -0.000001 -2.757390 1.371490 7.163600 6.456720 -0.000001 -0.000000 -5.216500 0.004839 13.103500 12.994200 -0.242716 4.980390 -86.864600 -6.859670 -65.362100 5.348090 -0.000007 -0.000001 -35.249600 -59.083700 -64.885800 24.328600 0.000019 0.000005 0.000050 8.546130 -0.000000 22.291600 -0.000001 0.000005 46.331400 4.086960 22.978000 12.994500 -0.242716 -4.980390 89.402200 2.121410 -74.257600 -5.348130 -0.000001 -0.000004 -60.206400 3.086500 -6.994400 -24.328900 0.000322 -0.000009 2.447790 8.791300 -15.632600 -22.291500 -0.000108 -0.000004 8.858900 5.224320 2.101840 -2.192480 -6.469440 -0.000000 -176.636000 -6.763140 -0.433667 39.081100 -0.000007 -0.000012 0.028733 -0.136374 11.898000 40.985400 -0.000006 -0.000013 0.257594 14.668700 -67.540200 11.754300 -0.000000 0.000003 -0.000300 0.172528 -9.578880 -2.192510 6.469440 -0.000001 173.678000 5.322730 -177.797000 -39.081100 -0.002282 -0.040193 0.005086 -0.012519 7.927150 -40.985400 0.000008 0.000006 -9.759730 4.815410 -65.036100 -11.754300 -0.000006 -0.000006 -0.010226 0.272984 -5.482320
0.000000 0.000000 0.000000 0.000000 0.000000 -0.000000 1.487290 93.354500 -0.278260 89.945300 1.102160 -0.247986 15.735700 0.000005 -0.000001 75.404400 87.324200 -67.095800 8.984550 -0.406207 -0.000000 -2.382440 -2.081080 16.575300 16.377300 -0.000001 -0.000001 -2.516140 1.408890 7.144820 6.456720 -0.000001 -0.000000 -4.862720 0.095513 13.063300 12.994200 -0.242716 4.980390 -86.876300 -6.819920 -65.318400 5.348090 -0.000007 -0.000001 -35.183600 -58.875200 -64.796700 24.328600 0.000019 0.000005 0.000047 8.510310 -0.000000 22.291600 -0.000001 0.000005 46.109500 4.115080 22.568200 12.994500 -0.242716 -4.980390 89.403000 2.113160 -74.219700 -5.348130 -0.000001 -0.000004 -60.717200 3.183650 -6.563500 -24.328900 0.000322 -0.000009 2.408570 8.457490 -15.966700 -22.291500 -0.000108 -0.000004 8.711140 5.224460 2.098280 -2.192480 -6.469440 -0.000000 -176.594000 -6.674210 -0.391089 39.081100 -0.000007 -0.000012 0.028480 -0.136212 11.809800 40.985400 -0.000006 -0.000013 0.221588 14.513900 -67.527400 11.754300 -0.000000 0.000003 -0.000305 0.172605 -9.575760 -2.192510 6.469440 -0.000001 173.717000 5.340730 -177.703000 -39.081100 -0.002282 -0.040193 0.004603 -0.009334 7.690630 -40.985400 0.000008 0.000006 -9.899970 4.900550 -64.879600 -11.754300 -0.000006 -0.000006 -0.010303 0.273555 -5.458940
0.000000 0.000000 0.000000 0.000000 0.000000 -0.000000 1.464530 93.354500 -0.254076 89.899200 1.058450 -0.261849 15.735700 0.000005 -0.000001 75.436600 87.325200 -67.136600 8.984550 -0.406207 -0.000000 -2.384060 -2.077060 16.558300 16.377300 -0.000001 -0.000001 -2.222540 1.406500 7.032270 6.456720 -0.000001 -0.000000 -4.655380 0.052165 12.967700 12.994200 -0.242716 4.980390 -86.892800 -6.782930 -65.316100 5.348090 -0.000007 -0.000001 -34.927600 -58.773400 -64.472100 24.328600 0.000019 0.000005 0.000046 8.798400 -0.000000 22.291600 -0.000001 0.000005 45.924900 4.122360 22.461800 12.994500 -0.242716 -4.980390 89.395100 2.135630 -74.181200 -5.348130 -0.000001 -0.000004 -61.183500 3.283480 -6.178380 -24.328900 0.000322 -0.000009 2.466340 8.441890 -16.358000 -22.291500 -0.000108 -0.000004 8.543540 5.228800 1.986110 -2.192480 -6.469440 -0.000000 -176.542000 -6.622790 -0.398832 39.081100 -0.000007 -0.000012 0.028656 -0.136776 11.833200 40.985400 -0.000006 -0.000013 0.199866 14.412400 -67.553700 11.754300 -0.000000 0.000003 -0.000339 0.173149 -9.553670 -2.192510 6.469440 -0.000001 173.768000 5.340100 -177.654000 -39.081100 -0.002282 -0.040193 0.004387 -0.007851 7.574110 -40.985400 0.000008 0.000006 -9.959500 4.925190 -64.781000 -11.754300 -0.000006 -0.000006 -0.010223 0.272965 -5.483090
0.000000 0.000000 0.000000 0.000000 0.000000 -0.000000 1.451770 93.359500 -0.241739 89.889200 1.020400 -0.267064 15.735700 0.000005 -0.000001 75.419500 87.318500 -67.147000 8.984550 -0.406207 -0.000000 -2.372230 -2.078710 16.503200 16.377300 -0.000001 -0.000001 -1.989360 1.434010 6.896530 6.456720 -0.000001 -0.000000 -4.482320 0.003941 12.895100 12.994200 -0.242716 4.980390 -86.893200 -6.780880 -65.311800 5.348090 -0.000007 -0.000001 -34.678800 -58.765200 -64.177000 24.328600 0.000019 0.000005 0.000050 8.944200 -0.000000 22.291600 -0.000001 0.000005 45.796100 4.135100 22.274800 12.994500 -0.242716 -4.980390 89.376900 2.189690 -74.111800 -5.348130 -0.000001 -0.000004 -61.587500 3.641920 -5.920190 -24.328900 0.000322 -0.000009 2.474940 8.338700 -16.602600 -22.291500 -0.000108 -0.000004 8.431060 5.232750 1.884510 -2.192480 -6.469440 -0.000000 -176.520000 -6.642810 -0.332619 39.081100 -0.000007 -0.000012 0.028324 -0.136451 11.727000 40.985400 -0.000006 -0.000013 0.179486 14.410700 -67.496900 11.754300 -0.000000 0.000003 -0.000145 0.170035 -9.680140 -2.192510 6.469440 -0.000001 173.775000 5.396300 -177.594000 -39.081100 -0.002282 -0.040193 0.004389 -0.007995 7.449770 -40.985400 0.000008 0.000006 -9.970800 5.002780 -64.705000 -11.754300 -0.000006 -0.000006 -0.010200 0.272796 -5.490020
0.000000 0.000000 0.000000 0.000000 0.000000 -0.000000 1.437560 93.350800 -0.223903 89.846200 0.974915 -0.246196 15.735700 0.000005 -0.000001 75.309400 87.316800 -67.048900 8.984550 -0.406207 -0.000000 -2.371160 -2.088430 16.479100 16.377300 -0.000001 -0.000001 -1.779320 1.441930 6.834250 6.456720 -0.000001 -0.000000 -4.275030 0.035386 12.747000 12.994200 -0.242716 4.980390 -86.911600 -6.739450 -65.309000 5.348090 -0.000007 -0.000001 -34.672500 -58.867400 -64.185200 24.328600 0.000019 0.000005 0.000051 8.927390 -0.000000 22.291600 -0.000001 0.000005 45.951300 4.132400 22.314200 12.994500 -0.242716 -4.980390 89.376300 2.184020 -74.057400 -5.348130 -0.000001 -0.000004 -62.003100 4.001510 -5.723530 -24.328900 0.000322 -0.000009 2.495880 8.399870 -16.621100 -22.291500 -0.000108 -0.000004 8.272790 5.235220 1.820240 -2.192480 -6.469440 -0.000000 -176.463000 -6.666940 -0.380289 39.081100 -0.000007 -0.000012 0.028507 -0.135486 11.882400 40.985400 -0.000006 -0.000013 0.182353 14.380000 -67.572700 11.754300 -0.000000 0.000003 -0.000364 0.173543 -9.537660 -2.192510 6.469440 -0.000001 173.827000 5.404860 -177.619000 -39.081100 -0.002282 -0.040193 0.004374 -0.007783 7.546080 -40.985400 0.000008 0.000006 -9.925950 5.047790 -64.758000 -11.754300 -0.000006 -0.000006 -0.010485 0.274892 -5.404260
0.000000 0.000000 0.000000 0.000000 0.000000 -0.000000 1.426700 93.355000 -0.217138 89.844200 0.961731 -0.257212 15.735700 0.000005 -0.000001 75.167500 87.326400 -66.940700 8.984550 -0.406207 -0.000000 -2.393810 -2.095010 16.411200 16.377300 -0.000001 -0.000001 -1.579110 1.556370 6.685200 6.456720 -0.000001 -0.000000 -4.173400 0.090353 12.826700 12.994200 -0.242716 4.980390 -86.912600 -6.726370 -65.273400 5.348090 -0.000007 -0.000001 -34.611100 -58.897600 -64.211800 24.328600 0.000019 0.000005 0.000049 8.853320 -0.000000 22.291600 -0.000001 0.000005 46.397400 4.131930 22.321400 12.994500 -0.242716 -4.980390 89.359300 2.241670 -74.044400 -5.348130 -0.000001 -0.000004 -62.302700 4.388500 -5.559120 -24.328900 0.000322 -0.000009 2.506680 8.470700 -16.558200 -22.291500 -0.000108 -0.000004 8.175180 5.234860 1.829480 -2.192480 -6.469440 -0.000000 -176.459000 -6.594080 -0.330644 39.081100 -0.000007 -0.000012 0.028322 -0.135743 11.785700 40.985400 -0.000006 -0.000013 0.158966 14.323700 -67.523400 11.754300 -0.000000 0.000003 -0.000209 0.171066 -9.638290 -2.192510 6.469440 -0.000001 173.827000 5.358900 -177.582000 -39.081100 -0.002282 -0.040193 0.004480 -0.008690 7.455000 -40.985400 0.000008 0.000006 -10.021500 5.036460 -64.698200 -11.754300 -0.000006 -0.000006 -0.010335 0.273793 -5.449230
0.000000 0.000000 0.000000 0.000000 0.000000 -0.000000 1.421990 93.340400 -0.204119 89.823300 0.948166 -0.195401 15.735700 0.000005 -0.000001 75.615000 87.329000 -67.399300 8.984550 -0.406207 -0.000000 -2.391670 -2.052210 16.389900 16.377300 -0.000001 -0.000001 -1.450900 1.619570 6.758400 6.456720 -0.000001 -0.000000 -4.053890 0.231755 12.575100 12.994200 -0.242716 4.980390 -86.923500 -6.712960 -65.307900 5.348090 -0.000007 -0.000001 -34.549900 -58.884500 -64.171700 24.328600 0.000019 0.000005 0.000052 9.011200 -0.000000 22.291600 -0.000001 0.000005 46.800100 4.132790 22.308800 12.994500 -0.242716 -4.980390 89.363400 2.217860 -73.980400 -5.348130 -0.000001 -0.000004 -62.543800 4.872150 -5.466930 -24.328900 0.000322 -0.000009 2.559130 8.753510 -16.373300 -22.291500 -0.000108 -0.000004 8.043660 5.232500 1.890800 -2.192480 -6.469440 -0.000000 -176.437000 -6.566540 -0.377263 39.081100 -0.000007 -0.000012 0.029019 -0.136482 12.003600 40.985400 -0.000006 -0.000013 0.179862 14.262600 -67.609900 11.754300 -0.000000 0.000003 -0.000252 0.171757 -9.610210 -2.192510 6.469440 -0.000001 173.855000 5.404020 -177.635000 -39.081100 -0.002282 -0.040193 0.004348 -0.007436 7.698060 -40.985400 0.000008 0.000006 -9.887470 5.103790 -64.832900 -11.754300 -0.000006 -0.000006 -0.010374 0.274080 -5.437480
